<svg
                width="25"
                height="25"
                viewBox="0 0 25 25"
                fill="none"
                xmlns="http://www.w3.org/2000/svg"
              >
                <g id="Frame">
                  <g id="Open Folder">
                    <path
                      id="Vector"
                      d="M23.4375 9.375H21.3542V7.29167C21.3544 7.0864 21.3142 6.8831 21.2358 6.6934C21.1574 6.50371 21.0423 6.33135 20.8971 6.1862C20.752 6.04106 20.5796 5.92597 20.3899 5.84755C20.2002 5.76912 19.9969 5.72889 19.7917 5.72917H11.849C11.6164 5.72922 11.3868 5.67734 11.1768 5.57732C10.9669 5.4773 10.7819 5.33167 10.6354 5.15104L9.61458 3.89583C9.41999 3.65506 9.174 3.46087 8.89462 3.32749C8.61525 3.19411 8.30958 3.12493 8 3.125H2.08333C1.87806 3.12473 1.67476 3.16496 1.48506 3.24338C1.29537 3.32181 1.12301 3.43689 0.977866 3.58204C0.832719 3.72718 0.717637 3.89954 0.639211 4.08923C0.560785 4.27893 0.520557 4.48223 0.520831 4.6875V20.0885C0.519754 20.3231 0.565756 20.5556 0.656113 20.7721C0.74647 20.9886 0.879345 21.1847 1.04687 21.349C1.2111 21.5165 1.40727 21.6494 1.62377 21.7397C1.84027 21.8301 2.07269 21.8761 2.30729 21.875H19.8385C20.2255 21.8749 20.6021 21.7495 20.9119 21.5176C21.2217 21.2857 21.4481 20.9598 21.5573 20.5885L24.4375 10.7083C24.4824 10.5531 24.4907 10.3896 24.4616 10.2306C24.4326 10.0716 24.367 9.92158 24.27 9.79229C24.173 9.66301 24.0474 9.55802 23.9029 9.4856C23.7584 9.41319 23.5991 9.37532 23.4375 9.375Z"
                      fill="#376CFB"
                    ></path>
                    <path
                      id="Vector_2"
                      d="M23.4368 9.375H8.6315C8.24496 9.37505 7.86887 9.50046 7.55967 9.73242C7.25046 9.96438 7.02484 10.2904 6.91665 10.6615L4.02082 20.5893C3.91264 20.9602 3.68707 21.286 3.37797 21.5178C3.06887 21.7497 2.69292 21.875 2.30655 21.875H19.8398C20.2264 21.875 20.6026 21.7497 20.9119 21.5177C21.2211 21.2857 21.4468 20.9597 21.555 20.5885L24.4369 10.7083C24.4821 10.5531 24.4907 10.3894 24.4617 10.2303C24.4328 10.0712 24.3672 9.92102 24.2702 9.79165C24.1731 9.66227 24.0473 9.55727 23.9027 9.48495C23.758 9.41264 23.5985 9.37499 23.4368 9.375Z"
                      fill="#4294FF"
                    ></path>
                  </g>
                </g>
              </svg>